<svg xmlns="http://www.w3.org/2000/svg" id="Layer_1" data-name="Layer 1" viewBox="0 0 500 500"><defs><style>.cls-1{fill:#f15a29}</style></defs><title>dogio_logo</title><path d="M268.67,130.84c1.5-35.42,13.59-65.53,38.1-89.83,15.88-15.75,34.52-28.43,58-18.88,23.62,9.62,28.21,32.1,27.85,54.25C392,112.45,378.54,143.87,352,169a80.65,80.65,0,0,1-15.72,11.42c-30.31,17.07-59.6,3.16-65.69-31.12C269.46,142.88,269.22,136.34,268.67,130.84Z" class="cls-1"/><path d="M223.18,129.61c-1.57,7.56-2.54,20.24-6.91,31.6-10.83,28.1-36.05,35.91-62.05,20.55-39.66-23.45-62.76-92.32-45.34-135.24,11.7-28.81,38.76-37.68,64.67-19.66C207.33,50.34,220,85.19,223.18,129.61Z" class="cls-1"/><path d="M371,237.56c.56-36.2,35.42-76.3,71.76-82.55,36-6.19,58.52,17.63,48.41,53.56s-34,60.18-71,69.14C391.79,284.61,370.58,266.69,371,237.56Z" class="cls-1"/><path d="M130.51,259.17c.17,25.33-17.55,41.25-43.2,38.79C51.07,294.5,14.78,262.1,7.39,226.62,1.85,200,17,179.67,43.47,178.17,83.63,175.89,130.24,219.27,130.51,259.17Z" class="cls-1"/><path d="M372.1,468.65c-12.86-3.34-37.75-7.19-60.5-16.34-30-12.06-56.9-9.27-83.88,6.5-13.1,7.67-26.19,15.5-39.89,22-33.89,16.1-67.11,14.2-99.26-5.44C74.89,467,68.29,455.31,68.1,439.06c-.48-39.43,14.43-72.13,43.49-97.88,26.26-23.26,44.92-50,55-84.37,10.72-36.56,39.67-55,76.76-58.1,35.11-3,65.49,6.32,83.73,40.44,20.13,37.63,50.27,60.17,93.88,67,45.23,7.13,83.28,71.07,70.15,115-2.77,9.27-11.53,18.67-20.05,23.94C444.69,461.48,414.88,467.2,372.1,468.65ZM217.34,238.15a14.06,14.06,0,1,0,14.06,14.06A14.05,14.05,0,0,0,217.34,238.15Zm63.58-14.07A14.07,14.07,0,1,0,295,238.15,14.07,14.07,0,0,0,280.92,224.08ZM231.4,275c.25,3.19,18,6.27,33.91,1.73,11.43-3.24,24.07-11,23.08-13.75C286.43,257.59,231,269.3,231.4,275Z" class="cls-1"/></svg>